<svg width="24" height="16" viewBox="0 0 24 16" fill="none" xmlns="http://www.w3.org/2000/svg">
<path d="M12.5217 6.60948C13.1409 6.60948 13.7461 6.42097 14.2609 6.06778C14.7757 5.71459 15.1769 5.21258 15.4139 4.62525C15.6508 4.03791 15.7128 3.39163 15.592 2.76812C15.4712 2.14461 15.1731 1.57188 14.7353 1.12235C14.2975 0.672826 13.7397 0.366695 13.1325 0.242671C12.5252 0.118647 11.8958 0.182301 11.3238 0.425583C10.7518 0.668864 10.2629 1.08085 9.91888 1.60943C9.5749 2.13802 9.3913 2.75947 9.3913 3.3952C9.3913 4.24768 9.72112 5.06524 10.3082 5.66804C10.8953 6.27083 11.6915 6.60948 12.5217 6.60948ZM12.5217 2.32377C12.7281 2.32377 12.9299 2.3866 13.1015 2.50433C13.2731 2.62207 13.4068 2.7894 13.4858 2.98518C13.5648 3.18096 13.5854 3.39638 13.5452 3.60422C13.5049 3.81206 13.4055 4.00297 13.2596 4.15281C13.1137 4.30265 12.9277 4.4047 12.7253 4.44604C12.5229 4.48738 12.3131 4.46616 12.1224 4.38507C11.9317 4.30397 11.7688 4.16664 11.6541 3.99045C11.5395 3.81425 11.4783 3.6071 11.4783 3.3952C11.4783 3.11103 11.5882 2.83851 11.7839 2.63758C11.9796 2.43665 12.245 2.32377 12.5217 2.32377ZM16.8104 6.45948C17.4209 5.56058 17.7482 4.49107 17.7482 3.3952C17.7482 2.29932 17.4209 1.22981 16.8104 0.330909C17.1105 0.231709 17.4239 0.181103 17.7391 0.180909C18.5694 0.180909 19.3656 0.519556 19.9527 1.12235C20.5398 1.72515 20.8696 2.54271 20.8696 3.3952C20.8696 4.24768 20.5398 5.06524 19.9527 5.66804C19.3656 6.27083 18.5694 6.60948 17.7391 6.60948C17.4239 6.60929 17.1105 6.55868 16.8104 6.45948ZM12.5217 8.75234C6.26087 8.75234 6.26087 13.0381 6.26087 13.0381V15.1809H18.7826V13.0381C18.7826 13.0381 18.7826 8.75234 12.5217 8.75234ZM8.34783 13.0381C8.34783 12.7273 8.68174 10.8952 12.5217 10.8952C16.1739 10.8952 16.633 12.5666 16.6957 13.0381M24 13.0381V15.1809H20.8696V13.0381C20.8452 12.2416 20.6665 11.4581 20.344 10.7333C20.0216 10.0085 19.5617 9.35695 18.9913 8.81662C24 9.34162 24 13.0381 24 13.0381ZM6.61565 4.38091L7.82609 5.89162L2.86957 10.9809L0 7.76662L1.21043 6.52377L2.86957 8.21662L6.61565 4.38091Z" fill="#0070B9"/>
</svg>
