<svg width="20" height="19" viewBox="0 0 20 19" fill="none" xmlns="http://www.w3.org/2000/svg">
<path d="M10.7333 16.351C10.2781 16.0962 9.72315 16.0962 9.26794 16.351L5.78482 18.3007C4.6679 18.9259 3.33146 17.9549 3.58092 16.6995L4.35885 12.7843C4.46051 12.2727 4.28904 11.7449 3.90603 11.3907L0.975469 8.68066C0.0357149 7.8116 0.546185 6.24052 1.81728 6.08981L5.78114 5.61983C6.29918 5.55841 6.74811 5.23224 6.96661 4.75854L8.6385 1.13391C9.17463 -0.0283984 10.8266 -0.0283926 11.3627 1.13392L13.0345 4.75853C13.253 5.23224 13.702 5.55841 14.22 5.61983L18.1838 6.08981C19.4549 6.24052 19.9654 7.81159 19.0257 8.68065L16.0951 11.3907C15.7121 11.7449 15.5407 12.2727 15.6423 12.7843L16.4202 16.6995C16.6697 17.9549 15.3333 18.9259 14.2163 18.3007L10.7333 16.351Z" fill="#FAB42B"/>
</svg>
