<svg width="24" height="23" viewBox="0 0 24 23" fill="none" xmlns="http://www.w3.org/2000/svg">
<path d="M22 16.6809V6.68091H6V16.6809H22ZM22 4.68091C22.5304 4.68091 23.0391 4.89162 23.4142 5.26669C23.7893 5.64177 24 6.15048 24 6.68091V16.6809C24 17.7909 23.1 18.6809 22 18.6809H16V20.6809H18V22.6809H10V20.6809H12V18.6809H6C4.89 18.6809 4 17.7909 4 16.6809V6.68091C4 6.15048 4.21071 5.64177 4.58579 5.26669C4.96086 4.89162 5.46957 4.68091 6 4.68091H22ZM2 2.68091V14.6809H0V2.68091C0 2.15048 0.210714 1.64177 0.585786 1.26669C0.960859 0.891622 1.46957 0.680908 2 0.680908H20V2.68091H2Z" fill="#0070B9"/>
</svg>
