<svg width="24" height="25" viewBox="0 0 24 25" fill="none" xmlns="http://www.w3.org/2000/svg">
<path d="M21.4979 6.10357L12.5754 15.2459C12.2978 15.5303 11.9624 15.7385 11.6428 15.8246L8.64863 16.6318L9.45912 13.6253C9.54331 13.313 9.7441 12.9853 10.0192 12.7112L19.0594 3.70197C19.645 3.11839 20.4027 2.92998 20.7534 3.28072L21.9009 4.42817C22.2473 4.7746 22.0682 5.51927 21.4979 6.10357Z" fill="#0070B9"/>
<path d="M12.9056 2.5C13.458 2.5 13.9058 2.94772 13.9058 3.5C13.9058 4.05228 13.458 4.5 12.9056 4.5H6.00422C4.89943 4.5 4.00382 5.39543 4.00382 6.5V18.5C4.00382 19.6046 4.89943 20.5 6.00422 20.5H18.0066C19.1114 20.5 20.007 19.6046 20.007 18.5V13.5C20.007 12.9477 20.4548 12.5 21.0072 12.5C21.5596 12.5 22.0074 12.9477 22.0074 13.5V18.5C22.0074 20.7091 20.2162 22.5 18.0066 22.5H6.00422C3.79464 22.5 2.00342 20.7091 2.00342 18.5V6.5C2.00342 4.29086 3.79464 2.5 6.00422 2.5H12.9056Z" fill="#0070B9" stroke="#0070B9" stroke-width="0.5"/>
</svg>
