<svg width="20" height="20" viewBox="0 0 20 20" fill="none" xmlns="http://www.w3.org/2000/svg">
<path d="M10 0C15.5228 0 20 4.47715 20 10C20 15.5228 15.5228 20 10 20C4.47715 20 0 15.5228 0 10C0 4.47715 4.47715 0 10 0ZM10 15C9.355 15 8.7386 14.8779 8.1725 14.6555L5.93604 16.8923C7.12707 17.5961 8.5164 18 10 18C11.4836 18 12.8729 17.5961 14.064 16.8923L11.8275 14.6555C11.2614 14.8779 10.645 15 10 15ZM2 10C2 11.4836 2.40386 12.8729 3.10765 14.064L5.34451 11.8275C5.12213 11.2614 5 10.645 5 10C5 9.355 5.12213 8.7386 5.34451 8.1725L3.10765 5.93604C2.40386 7.12707 2 8.5164 2 10ZM16.8923 5.93604L14.6555 8.1725C14.8779 8.7386 15 9.355 15 10C15 10.645 14.8779 11.2614 14.6555 11.8275L16.8923 14.064C17.5961 12.8729 18 11.4836 18 10C18 8.5164 17.5961 7.12707 16.8923 5.93604ZM10 7C8.3431 7 7 8.3431 7 10C7 11.6569 8.3431 13 10 13C11.6569 13 13 11.6569 13 10C13 8.3431 11.6569 7 10 7ZM10 2C8.5164 2 7.12707 2.40386 5.93604 3.10765L8.1725 5.34451C8.7386 5.12213 9.355 5 10 5C10.645 5 11.2614 5.12213 11.8275 5.34451L14.064 3.10765C12.8729 2.40386 11.4836 2 10 2Z" fill="#2D2A32" fill-opacity="0.72"/>
</svg>
