<svg width="19" height="16" viewBox="0 0 19 16" fill="none" xmlns="http://www.w3.org/2000/svg">
<path d="M2 -0.000732422C0.895431 -0.000732422 0 0.894698 0 1.99927V4.85641C0 5.96098 0.895431 6.85641 2 6.85641H5.125C6.22957 6.85641 7.125 5.96098 7.125 4.85641V1.99927C7.125 0.894697 6.22957 -0.000732422 5.125 -0.000732422H2ZM10.6429 -0.000732422C10.0117 -0.000732422 9.5 0.510942 9.5 1.14212C9.5 1.77331 10.0117 2.28498 10.6429 2.28498H17.8571C18.4883 2.28498 19 1.77331 19 1.14212C19 0.510942 18.4883 -0.000732422 17.8571 -0.000732422H10.6429ZM10.6429 4.5707C10.0117 4.5707 9.5 5.08237 9.5 5.71355C9.5 6.34474 10.0117 6.85641 10.6429 6.85641H15.4821C16.1133 6.85641 16.625 6.34474 16.625 5.71355C16.625 5.08237 16.1133 4.5707 15.4821 4.5707H10.6429ZM2 9.14213C0.895431 9.14213 0 10.0376 0 11.1421V13.9993C0 15.1038 0.895431 15.9993 2 15.9993H5.125C6.22957 15.9993 7.125 15.1038 7.125 13.9993V11.1421C7.125 10.0376 6.22957 9.14213 5.125 9.14213H2ZM10.6429 9.14213C10.0117 9.14213 9.5 9.6538 9.5 10.285C9.5 10.9162 10.0117 11.4278 10.6429 11.4278H17.8571C18.4883 11.4278 19 10.9162 19 10.285C19 9.6538 18.4883 9.14213 17.8571 9.14213H10.6429ZM10.6429 13.7136C10.0117 13.7136 9.5 14.2252 9.5 14.8564C9.5 15.4876 10.0117 15.9993 10.6429 15.9993H15.4821C16.1133 15.9993 16.625 15.4876 16.625 14.8564C16.625 14.2252 16.1133 13.7136 15.4821 13.7136H10.6429Z" fill="#0070B9"/>
</svg>
