<svg width="112" height="137" viewBox="0 0 112 137" fill="none" xmlns="http://www.w3.org/2000/svg">
<path d="M30.147 76.2275L15.082 67.8157V51.0078L30.147 59.4039V76.2275Z" fill="#19124B"/>
<path d="M30.147 25.7734L15.082 34.1852V50.9932L30.147 42.5971V25.7734Z" fill="#19124B"/>
<path d="M45.2267 0.552734L30.1455 8.96461V25.7726L45.2267 17.3607V0.552734Z" fill="#19124B"/>
<path d="M15.0812 51.009L0 42.5971V25.7734L15.0812 34.1852V51.009Z" fill="#67308F"/>
<path d="M75.3899 51.009L60.3086 42.5971V25.7734L75.3899 34.1852V51.009Z" fill="#0A71B9"/>
<path d="M0 76.2263L15.0812 84.6382L30.1462 76.2263L15.0812 67.8145L0 76.2263Z" fill="#922A8E"/>
<path d="M15.082 51.0076L30.147 59.4037L45.2282 51.0076L30.147 42.5957L15.082 51.0076Z" fill="#49C8F5"/>
<path d="M45.2275 51.0076L60.3088 59.4037L75.3901 51.0076L60.3088 42.5957L45.2275 51.0076Z" fill="#49C8F5"/>
<path d="M50.2725 108.651H40.5505C39.4885 108.651 38.6225 107.83 38.6062 106.82V95.094H48.3772C49.4392 95.1256 50.2725 95.9463 50.2725 96.9721V108.651ZM29.979 87.1557C29.979 89.9649 29.979 104.674 29.979 108.651H14.7997C14.669 108.651 14.5383 108.698 14.4402 108.793L9.94692 116.147C9.8162 116.384 9.76717 116.494 9.83253 116.668C9.89789 116.842 10.094 116.968 10.2901 116.968H62.2002C64.5531 116.905 66.6119 115.832 67.9517 114.175C69.2916 115.832 71.3503 116.905 73.7032 116.968H110.843C111.12 116.968 111.333 116.763 111.333 116.495V109.124C111.333 108.998 111.267 108.888 111.186 108.793C111.088 108.714 110.957 108.651 110.843 108.651H91.121V96.9879C91.121 95.9621 91.9706 95.1256 93.0326 95.094H106.284C106.415 95.094 106.545 95.0467 106.643 94.952L111.186 87.5186C111.316 87.2819 111.366 87.1714 111.3 86.9978C111.218 86.8084 111.039 86.6979 110.843 86.6979H90.7778C86.2518 86.6979 82.4447 90.1543 82.4447 94.2576V108.651H74.9613V72.0522C74.9613 71.8628 74.8469 71.6892 74.6508 71.6103C74.4711 71.5314 74.3568 71.5787 74.1117 71.7208L66.4811 76.0608C66.3831 76.1555 66.3341 76.2818 66.3341 76.4081V108.635H58.867V94.1629C58.867 90.1069 55.0763 86.6821 50.5993 86.6821H30.4528C29.9953 86.6821 29.9627 87.1557 29.9627 87.1557" fill="#818285"/>
<path d="M77.6084 122.697C77.6084 122.571 77.6901 122.492 77.8208 122.492H87.0853C87.216 122.492 87.2977 122.571 87.2977 122.697V124.891C87.2977 125.017 87.216 125.096 87.0853 125.096H80.86C80.7783 125.096 80.7293 125.144 80.7293 125.223V128C80.7293 128.079 80.7783 128.126 80.86 128.126H86.0396C86.1703 128.126 86.252 128.205 86.252 128.332V130.51C86.252 130.636 86.1703 130.715 86.0396 130.715H80.86C80.7783 130.715 80.7293 130.762 80.7293 130.841V133.729C80.7293 133.808 80.7783 133.855 80.86 133.855H87.0853C87.216 133.855 87.2977 133.934 87.2977 134.06V136.254C87.2977 136.38 87.216 136.459 87.0853 136.459H77.8208C77.6901 136.459 77.6084 136.38 77.6084 136.254V122.713V122.697Z" fill="#818285"/>
<path d="M92.7067 136.57C90.4355 136.57 89.5205 135.607 89.5205 133.413V122.713C89.5205 122.587 89.6022 122.508 89.7329 122.508H92.2819C92.4126 122.508 92.4943 122.587 92.4943 122.713V133.192C92.4943 133.871 92.772 134.139 93.3929 134.139H93.8341C93.9648 134.139 94.0464 134.218 94.0464 134.344V136.38C94.0464 136.507 93.9648 136.585 93.8341 136.585H92.7067V136.57Z" fill="#818285"/>
<path d="M108.588 136.441C108.457 136.441 108.376 136.362 108.376 136.236V130.539C108.376 129.45 107.82 128.739 106.758 128.739C105.696 128.739 105.157 129.465 105.157 130.539V136.236C105.157 136.362 105.075 136.441 104.945 136.441H102.396C102.265 136.441 102.183 136.362 102.183 136.236V130.539C102.183 129.45 101.66 128.739 100.598 128.739C99.5361 128.739 98.9806 129.465 98.9806 130.539V136.236C98.9806 136.362 98.8989 136.441 98.7682 136.441H96.2193C96.0885 136.441 96.0068 136.362 96.0068 136.236V126.719C96.0068 126.593 96.0885 126.514 96.2193 126.514H98.7682C98.8989 126.514 98.9806 126.593 98.9806 126.719V127.414H98.997C99.4708 126.798 100.337 126.277 101.644 126.277C102.951 126.277 103.817 126.703 104.405 127.524H104.422C105.19 126.751 106.203 126.277 107.657 126.277C110.075 126.277 111.333 127.777 111.333 129.97V136.236C111.333 136.362 111.251 136.441 111.121 136.441H108.572H108.588Z" fill="#818285"/>
</svg>
