<svg width="105" height="46" viewBox="0 0 105 46" fill="none" xmlns="http://www.w3.org/2000/svg">
<path d="M15.7597 41.2019L7.88434 36.6492V27.5524L15.7597 32.0965V41.2019Z" fill="#19124B"/>
<path d="M15.7597 13.8948L7.88434 18.4474V27.5443L15.7597 23.0001V13.8948Z" fill="#19124B"/>
<path d="M23.6429 0.245239L15.759 4.79794V13.8948L23.6429 9.34208V0.245239Z" fill="#19124B"/>
<path d="M7.88389 27.5528L0 23.0001V13.8948L7.88389 18.4474V27.5528Z" fill="#67308F"/>
<path d="M39.4117 27.5528L31.5277 23.0001V13.8948L39.4117 18.4474V27.5528Z" fill="#0A71B9"/>
<path d="M0 41.2021L7.88389 45.7548L15.7593 41.2021L7.88389 36.6494L0 41.2021Z" fill="#922A8E"/>
<path d="M7.88434 27.5526L15.7597 32.0967L23.6436 27.5526L15.7597 22.9999L7.88434 27.5526Z" fill="#49C8F5"/>
<path d="M23.6434 27.5526L31.5273 32.0967L39.4112 27.5526L31.5273 22.9999L23.6434 27.5526Z" fill="#49C8F5"/>
<path d="M72.5672 25.4741H67.4849C66.9297 25.4741 66.477 25.0299 66.4685 24.4833V18.1369H71.5764C72.1316 18.154 72.5672 18.5981 72.5672 19.1533V25.4741ZM61.9585 13.8405C61.9585 15.3609 61.9585 23.3217 61.9585 25.4741H54.0234C53.955 25.4741 53.8867 25.4997 53.8355 25.551L51.4865 29.5314C51.4182 29.6595 51.3926 29.7193 51.4267 29.8132C51.4609 29.9072 51.5634 29.9755 51.6659 29.9755H78.8026C80.0326 29.9414 81.1088 29.3606 81.8092 28.4637C82.5097 29.3606 83.5859 29.9414 84.8159 29.9755H104.231C104.376 29.9755 104.487 29.8645 104.487 29.7193V25.7304C104.487 25.662 104.453 25.6022 104.41 25.551C104.359 25.5083 104.291 25.4741 104.231 25.4741H93.9212V19.1619C93.9212 18.6067 94.3654 18.154 94.9206 18.1369H101.848C101.916 18.1369 101.985 18.1113 102.036 18.06L104.41 14.0369C104.479 13.9088 104.504 13.849 104.47 13.755C104.427 13.6525 104.333 13.5927 104.231 13.5927H93.7419C91.3758 13.5927 89.3857 15.4634 89.3857 17.6842V25.4741H85.4736V5.66613C85.4736 5.56364 85.4138 5.46965 85.3113 5.42694C85.2173 5.38424 85.1576 5.40987 85.0295 5.48674L81.0405 7.83569C80.9892 7.88694 80.9636 7.9553 80.9636 8.02363V25.4656H77.0601V17.6329C77.0601 15.4378 75.0785 13.5842 72.7381 13.5842H62.2062C61.9671 13.5842 61.95 13.8405 61.95 13.8405" fill="#818285"/>
<path d="M86.8569 33.076C86.8569 33.0077 86.8997 32.965 86.968 32.965H91.8111C91.8795 32.965 91.9222 33.0077 91.9222 33.076V34.2633C91.9222 34.3316 91.8795 34.3744 91.8111 34.3744H88.5568C88.5141 34.3744 88.4884 34.4 88.4884 34.4427V35.946C88.4884 35.9887 88.5141 36.0143 88.5568 36.0143H91.2645C91.3328 36.0143 91.3755 36.057 91.3755 36.1254V37.3041C91.3755 37.3725 91.3328 37.4152 91.2645 37.4152H88.5568C88.5141 37.4152 88.4884 37.4408 88.4884 37.4835V39.0466C88.4884 39.0893 88.5141 39.1149 88.5568 39.1149H91.8111C91.8795 39.1149 91.9222 39.1577 91.9222 39.226V40.4133C91.9222 40.4816 91.8795 40.5243 91.8111 40.5243H86.968C86.8997 40.5243 86.8569 40.4816 86.8569 40.4133V33.0846V33.076Z" fill="#818285"/>
<path d="M94.7495 40.5852C93.5622 40.5852 93.0838 40.0642 93.0838 38.8769V33.0857C93.0838 33.0173 93.1266 32.9746 93.1949 32.9746H94.5274C94.5957 32.9746 94.6384 33.0173 94.6384 33.0857V38.7573C94.6384 39.1246 94.7836 39.2698 95.1082 39.2698H95.3388C95.4072 39.2698 95.4498 39.3125 95.4498 39.3808V40.4827C95.4498 40.5511 95.4072 40.5937 95.3388 40.5937H94.7495V40.5852Z" fill="#818285"/>
<path d="M103.052 40.514C102.984 40.514 102.941 40.4713 102.941 40.4029V37.3194C102.941 36.7301 102.651 36.3457 102.096 36.3457C101.54 36.3457 101.259 36.7386 101.259 37.3194V40.4029C101.259 40.4713 101.216 40.514 101.148 40.514H99.8151C99.7467 40.514 99.704 40.4713 99.704 40.4029V37.3194C99.704 36.7301 99.4307 36.3457 98.8755 36.3457C98.3203 36.3457 98.0299 36.7386 98.0299 37.3194V40.4029C98.0299 40.4713 97.9871 40.514 97.9188 40.514H96.5863C96.518 40.514 96.4753 40.4713 96.4753 40.4029V35.2523C96.4753 35.184 96.518 35.1413 96.5863 35.1413H97.9188C97.9871 35.1413 98.0299 35.184 98.0299 35.2523V35.6282H98.0384C98.2861 35.295 98.7388 35.0132 99.4221 35.0132C100.105 35.0132 100.558 35.2438 100.866 35.688H100.874C101.276 35.2694 101.805 35.0132 102.565 35.0132C103.83 35.0132 104.487 35.8246 104.487 37.0119V40.4029C104.487 40.4713 104.445 40.514 104.376 40.514H103.044H103.052Z" fill="#818285"/>
</svg>
