<svg width="142" height="139" viewBox="0 0 142 139" fill="none" xmlns="http://www.w3.org/2000/svg">
<g clip-path="url(#clip0_1_682)">
<path d="M142 115.834C142 128.628 131.404 139.001 118.334 139.001C105.263 139.001 94.6678 128.628 94.6678 115.834C94.6678 103.04 105.263 92.668 118.334 92.668C131.404 92.668 142 103.04 142 115.834Z" fill="#117FC7"/>
<path d="M112.418 60.8122C112.418 72.0083 103.147 81.0834 91.7089 81.0834C80.2712 81.0834 71.0002 72.0083 71.0002 60.8122C71.0002 49.6175 80.2712 40.541 91.7089 40.541C103.147 40.541 112.418 49.6175 112.418 60.8122Z" fill="#117FC7"/>
<path d="M71.0003 104.249C71.0003 123.442 55.1058 139 35.4995 139C15.8945 139 0 123.442 0 104.249C0 85.0573 15.8945 69.5 35.4995 69.5C55.1058 69.5 71.0003 85.0573 71.0003 104.249Z" fill="#117FC7"/>
<path d="M59.1685 28.9592C59.1685 44.9527 45.9229 57.9184 29.5842 57.9184C13.2456 57.9184 0 44.9527 0 28.9592C0 12.9658 13.2456 0 29.5842 0C45.9229 0 59.1685 12.9658 59.1685 28.9592Z" fill="#117FC7"/>
<path d="M142.001 17.3747C142.001 26.9708 134.053 34.7495 124.249 34.7495C114.446 34.7495 106.5 26.9708 106.5 17.3747C106.5 7.77866 114.446 0 124.249 0C134.053 0 142.001 7.77866 142.001 17.3747Z" fill="#117FC7"/>
<path d="M136.083 75.2903C136.083 78.489 133.434 81.0818 130.166 81.0818C126.898 81.0818 124.249 78.489 124.249 75.2903C124.249 72.0929 126.898 69.5 130.166 69.5C133.434 69.5 136.083 72.0929 136.083 75.2903Z" fill="#117FC7"/>
<path d="M91.709 20.2709C91.709 25.0696 87.7357 28.959 82.8334 28.959C77.9325 28.959 73.9592 25.0696 73.9592 20.2709C73.9592 15.4736 77.9325 11.5842 82.8334 11.5842C87.7357 11.5842 91.709 15.4736 91.709 20.2709Z" fill="#117FC7"/>
</g>
<defs>
<clipPath id="clip0_1_682">
<rect width="142" height="139" fill="white"/>
</clipPath>
</defs>
</svg>
