<svg width="22" height="22" viewBox="0 0 22 22" fill="none" xmlns="http://www.w3.org/2000/svg">
<path d="M7.75212 4.19779C7.75212 4.61773 7.83613 5.03356 7.99936 5.42153C8.16259 5.80951 8.40183 6.16203 8.70343 6.45897C9.00503 6.75592 9.36308 6.99146 9.75714 7.15217C10.1512 7.31287 10.5736 7.39558 11.0001 7.39558C11.4266 7.39558 11.849 7.31287 12.243 7.15217C12.6371 6.99146 12.9951 6.75591 13.2967 6.45897C13.5983 6.16203 13.8376 5.80951 14.0008 5.42153C14.164 5.03356 14.248 4.61773 14.248 4.19779C14.248 3.77785 14.164 3.36202 14.0008 2.97405C13.8376 2.58608 13.5983 2.23355 13.2967 1.93661C12.9951 1.63967 12.6371 1.40412 12.243 1.24342C11.849 1.08271 11.4266 1 11.0001 1C10.5736 1 10.1512 1.08271 9.75714 1.24342C9.36308 1.40412 9.00503 1.63967 8.70343 1.93661C8.40183 2.23356 8.16258 2.58608 7.99936 2.97405C7.83613 3.36203 7.75212 3.77785 7.75212 4.19779L7.75212 4.19779Z" stroke="#39BDCA" stroke-width="2"/>
<path d="M2.81275 12.6201C2.44337 12.8301 2.11961 13.1096 1.85995 13.4428C1.6003 13.7759 1.40984 14.1562 1.29944 14.5618C1.18905 14.9674 1.16089 15.3905 1.21656 15.8069C1.27223 16.2232 1.41065 16.6247 1.62392 16.9884C1.83718 17.352 2.12111 17.6708 2.4595 17.9264C2.79789 18.1821 3.18411 18.3696 3.5961 18.4783C4.0081 18.587 4.4378 18.6147 4.86068 18.5599C5.28356 18.5051 5.69133 18.3688 6.06072 18.1588C6.4301 17.9489 6.75386 17.6693 7.01352 17.3362C7.27317 17.003 7.46363 16.6227 7.57403 16.2171C7.68442 15.8115 7.71258 15.3884 7.65691 14.9721C7.60124 14.5557 7.46282 14.1542 7.24955 13.7906C7.03629 13.4269 6.75236 13.1081 6.41397 12.8525C6.07558 12.5968 5.68936 12.4093 5.27737 12.3006C4.86537 12.1919 4.43567 12.1642 4.01279 12.219C3.58991 12.2738 3.18214 12.4101 2.81275 12.6201L2.81275 12.6201Z" stroke="#39BDCA" stroke-width="2"/>
<path d="M19.187 12.6201C19.5564 12.8301 19.8801 13.1096 20.1398 13.4428C20.3995 13.7759 20.5899 14.1562 20.7003 14.5618C20.8107 14.9674 20.8389 15.3905 20.7832 15.8069C20.7275 16.2232 20.5891 16.6247 20.3758 16.9884C20.1626 17.352 19.8786 17.6708 19.5403 17.9264C19.2019 18.1821 18.8156 18.3696 18.4037 18.4783C17.9917 18.587 17.562 18.6147 17.1391 18.5599C16.7162 18.5051 16.3084 18.3688 15.939 18.1588C15.5697 17.9489 15.2459 17.6693 14.9862 17.3362C14.7266 17.003 14.5361 16.6227 14.4257 16.2171C14.3153 15.8115 14.2872 15.3884 14.3428 14.9721C14.3985 14.5557 14.5369 14.1542 14.7502 13.7906C14.9635 13.4269 15.2474 13.1081 15.5858 12.8525C15.9242 12.5968 16.3104 12.4093 16.7224 12.3006C17.1344 12.1919 17.5641 12.1642 17.987 12.219C18.4098 12.2738 18.8176 12.4101 19.187 12.6201L19.187 12.6201Z" stroke="#39BDCA" stroke-width="2"/>
<path fill-rule="evenodd" clip-rule="evenodd" d="M7.63949 4.81456C7.59908 4.61201 7.57859 4.4056 7.57859 4.19818C7.57859 3.77824 7.6626 3.36242 7.82582 2.97444C7.89021 2.8214 7.96642 2.67388 8.05362 2.53311C7.74257 2.62502 7.43583 2.73252 7.13462 2.85535C5.9636 3.33292 4.89857 4.0333 4.00076 4.91725C3.10291 5.80123 2.38985 6.85151 1.90307 8.00855C1.41628 9.16562 1.16553 10.4063 1.16553 11.6597C1.16553 12.3958 1.25203 13.1276 1.42206 13.8406C1.49991 13.7022 1.58826 13.5694 1.68652 13.4433C1.94617 13.1102 2.26993 12.8306 2.63932 12.6206C2.81797 12.5191 3.0056 12.4348 3.19958 12.3686C3.17693 12.1333 3.16553 11.8968 3.16553 11.6596C3.16553 10.6733 3.36283 9.69625 3.74657 8.78413C4.13033 7.87197 4.69323 7.04213 5.40392 6.34242C6.05036 5.70597 6.80755 5.18854 7.63949 4.81456ZM14.0136 4.81439C14.8457 5.18837 15.6031 5.70587 16.2496 6.34242C16.9603 7.04213 17.5232 7.87196 17.9069 8.78412C18.2907 9.69625 18.488 10.6733 18.488 11.6596C18.488 11.8968 18.4766 12.1334 18.4539 12.3687C18.6478 12.4349 18.8353 12.5192 19.0138 12.6206C19.3832 12.8306 19.7069 13.1102 19.9666 13.4433C20.065 13.5696 20.1534 13.7025 20.2313 13.8411C20.4014 13.1279 20.488 12.396 20.488 11.6596C20.488 10.4063 20.2372 9.16561 19.7504 8.00854C19.2637 6.85151 18.5506 5.80122 17.6528 4.91724C16.7549 4.03329 15.6899 3.33291 14.5189 2.85535C14.2175 2.73245 13.9106 2.6249 13.5994 2.53296C13.6866 2.67377 13.7629 2.82135 13.8273 2.97444C13.9905 3.36241 14.0745 3.77824 14.0745 4.19818C14.0745 4.40554 14.054 4.61189 14.0136 4.81439ZM17.4595 18.5871C17.2949 18.5905 17.1299 18.5817 16.9659 18.5604C16.543 18.5056 16.1352 18.3693 15.7658 18.1594C15.5843 18.0562 15.4137 17.9362 15.2564 17.8013C14.7924 18.1244 14.2919 18.3966 13.7636 18.612C12.833 18.9916 11.835 19.1871 10.8268 19.1871C9.81853 19.1871 8.82053 18.9916 7.88987 18.612C7.36155 18.3966 6.86097 18.1243 6.39686 17.8011C6.2395 17.9361 6.0689 18.0561 5.88728 18.1594C5.51789 18.3693 5.11012 18.5056 4.68724 18.5604C4.52338 18.5817 4.35849 18.5905 4.19401 18.5871C5.04996 19.3841 6.04653 20.0202 7.13463 20.4639C8.30563 20.9415 9.56017 21.1871 10.8268 21.1871C12.0934 21.1871 13.3479 20.9415 14.5189 20.4639C15.607 20.0202 16.6036 19.3841 17.4595 18.5871Z" fill="#39BDCA"/>
</svg>
